<?xml version="1.0" encoding="UTF-8"?>
<svg id="Layer_1" xmlns="http://www.w3.org/2000/svg" version="1.1" viewBox="0 0 73 73">
  <!-- Generator: Adobe Illustrator 29.3.1, SVG Export Plug-In . SVG Version: 2.1.0 Build 151)  -->
  <defs>
    <style>
      .st0 {
        fill: #fff;
      }
    </style>
  </defs>
  <path class="st0" d="M73,4.06v52.72c0,1.08-.43,2.11-1.19,2.87-.76.76-1.79,1.19-2.87,1.19s-2.11-.43-2.87-1.19c-.76-.76-1.19-1.79-1.19-2.87V13.84L6.93,71.81c-.76.76-1.79,1.19-2.87,1.19s-2.11-.43-2.87-1.19c-.76-.76-1.19-1.79-1.19-2.87s.43-2.11,1.19-2.87L59.16,8.11H16.22c-1.08,0-2.11-.43-2.87-1.19-.76-.76-1.19-1.79-1.19-2.87s.43-2.11,1.19-2.87c.76-.76,1.79-1.19,2.87-1.19h52.72c1.08,0,2.11.43,2.87,1.19.76.76,1.19,1.79,1.19,2.87Z"/>
</svg>