<svg width="73" height="73" viewBox="0 0 73 73" fill="none" xmlns="http://www.w3.org/2000/svg">
<path d="M73 4.05543V56.776C73 57.8516 72.5727 58.8831 71.8122 59.6436C71.0517 60.4042 70.0201 60.8314 68.9446 60.8314C67.869 60.8314 66.8375 60.4042 66.0769 59.6436C65.3164 58.8831 64.8891 57.8516 64.8891 56.776V13.8442L6.9269 71.8115C6.16594 72.5725 5.13385 73 4.05768 73C2.98152 73 1.94943 72.5725 1.18847 71.8115C0.427505 71.0506 0 70.0185 0 68.9423C0 67.8661 0.427505 66.8341 1.18847 66.0731L59.1558 8.11086H16.224C15.1484 8.11086 14.1169 7.68359 13.3564 6.92305C12.5958 6.16251 12.1685 5.131 12.1685 4.05543C12.1685 2.97986 12.5958 1.94835 13.3564 1.18781C14.1169 0.427268 15.1484 0 16.224 0H68.9446C70.0201 0 71.0517 0.427268 71.8122 1.18781C72.5727 1.94835 73 2.97986 73 4.05543Z" fill="black"/>
</svg>
