<?xml version="1.0" encoding="UTF-8"?>
<svg id="Layer_1" xmlns="http://www.w3.org/2000/svg" xmlns:xlink="http://www.w3.org/1999/xlink" version="1.1" viewBox="0 0 250.6 264.74">
  <!-- Generator: Adobe Illustrator 29.3.1, SVG Export Plug-In . SVG Version: 2.1.0 Build 151)  -->
  <defs>
    <style>
      .st0 {
        fill: #fff;
      }
    </style>
  </defs>
  <path class="st0" d="M0,0v266.1h250.6V0H0ZM106.57,227.1h-27.56c-5.88,0-10.65-4.77-10.65-10.65h0c0-5.88,4.77-10.65,10.65-10.65h27.56c5.88,0,10.65,4.77,10.65,10.65h0c0,5.88-4.77,10.65-10.65,10.65ZM168.01,54.38h28.17c8.07,0,14.6,6.54,14.6,14.6v17.86c0,8.07-6.54,14.6-14.6,14.6h-28.17c-8.07,0-14.6-6.54-14.6-14.6v-17.86c0-8.07,6.54-14.6,14.6-14.6ZM199.6,243.86h-23.49c-6.17,0-11.18-5-11.18-11.18v-.07c0-6.17,5-11.18,11.18-11.18h23.49c6.17,0,11.18,5,11.18,11.18v.07c0,6.17-5,11.18-11.18,11.18h0Z"/>
</svg>