<?xml version="1.0" encoding="UTF-8"?>
<svg id="Layer_1" xmlns="http://www.w3.org/2000/svg" version="1.1" viewBox="0 0 430 535">
  <!-- Generator: Adobe Illustrator 29.3.1, SVG Export Plug-In . SVG Version: 2.1.0 Build 151)  -->
  <defs>
    <style>
      .st0 {
        fill: #fff;
      }
    </style>
  </defs>
  <path class="st0" d="M0,0v535h430V0H0ZM123.92,471.88c0,8.98-7.28,16.25-16.25,16.25h-45.5c-8.98,0-16.25-7.28-16.25-16.25h0c0-8.98,7.28-16.25,16.25-16.25h45.5c8.98,0,16.25,7.28,16.25,16.25h0ZM381.18,125.31c0,8.77-7.11,15.87-15.87,15.87h-44.44c-8.77,0-15.87-7.11-15.87-15.87v-.32c0-8.59,6.96-15.56,15.56-15.56h44.76c8.77,0,15.87,7.11,15.87,15.87h0Z"/>
</svg>